<svg id="Layer_1" data-name="Layer 1" xmlns="http://www.w3.org/2000/svg" xmlns:xlink="http://www.w3.org/1999/xlink" viewBox="0 0 1493.7 1499.7"><defs><style>.cls-1{fill:none;}.cls-2{fill:#6dbc52;}.cls-3{clip-path:url(#clip-path);}.cls-4{fill:url(#linear-gradient);}</style><clipPath id="clip-path"><rect class="cls-1" x="-1.1" y="7.08" width="1499.7" height="1499.7" rx="190.76"/></clipPath><linearGradient id="linear-gradient" x1="19.81" y1="846.75" x2="1321.48" y2="865.17" gradientTransform="matrix(1, 0, 0, -1, 0, 1499)" gradientUnits="userSpaceOnUse"><stop offset="0.05" stop-color="#8986c1"/><stop offset="0.21" stop-color="#8491c0"/><stop offset="0.49" stop-color="#75adbe"/><stop offset="0.65" stop-color="#6cc0bd"/><stop offset="0.72" stop-color="#6cbfa0"/><stop offset="0.85" stop-color="#6cbe76"/><stop offset="0.94" stop-color="#6cbd5c"/><stop offset="1" stop-color="#6cbd52"/></linearGradient></defs><g id="Layer_3" data-name="Layer 3"><path class="cls-2" d="M1026.77,1181.73c-119.38,12.1-138.39-173.4-18.87-185.53S1146.34,1169.6,1026.77,1181.73Z"/><g class="cls-3"><path class="cls-4" d="M1364.3,378.52c-43.94-7.41-77.57,23-88.64,63-10.15,36.63-34.08,90.4-53.76,121.43C1108,742.46,905.26,815.08,696.19,792.61,449.9,766.13,207.79,653.4,10.33,506.89c-66.26-49.16-127.84-104-188-160.51-29.36,44.24-57.67,86.33-87.64,129C-208.15,528.32-149.5,579.59-86.84,626c103,76.3,214.47,142.29,331.43,194.67,231.67,103.78,504.27,174.49,754,96,211.21-66.43,370-237.77,428.67-449.47C1438.39,426.93,1402,384.87,1364.3,378.52Z"/></g></g></svg>