<svg width="57" height="57" viewBox="0 0 57 57" fill="none" xmlns="http://www.w3.org/2000/svg">\a<path fill-rule="evenodd" clip-rule="evenodd" d="M26.226 6.04402C26.7057 5.32858 27.6336 4.74999 28.8721 4.74999C31.009 4.74999 32.2925 6.24388 33.0874 7.16908C33.1627 7.25667 33.2335 7.33917 33.3003 7.41482C34.9316 9.2595 35.7346 11.485 36.0797 13.6562L34.4378 16.0312L19.2235 37.8012L28.8721 52.2499H28.0912C28.0528 52.2499 28.013 52.2499 27.9719 52.2499C26.2845 52.2513 22.3951 52.2545 19.2235 50.0985C18.8763 49.8625 18.5698 49.6121 18.2797 49.3595V49.793C16.625 47.9743 18.1664 22.0692 18.2733 25.9774C20.2677 25.7426 21.4581 24.9848 21.7834 24.6514C22.7333 23.6774 23.7436 21.897 24.4678 20.0975C25.192 18.2981 25.6383 16.433 25.6383 15.4477V8.07702V8.06744C25.6445 7.52638 25.7462 6.75946 26.226 6.04402ZM40.969 52.2413C43.0455 52.1819 44.6857 51.8158 45.9336 51.1542C47.3019 50.4287 48.1828 49.2901 48.4471 47.9743C48.5164 47.6291 48.4395 46.6556 48.0096 45.519C49.6233 45.1346 50.9825 43.9928 51.5356 42.3807C52.0788 40.7973 51.7399 39.0893 50.7499 37.8012C52.3522 36.9465 53.4375 35.2974 53.4375 33.4137C53.4375 31.4866 52.2978 29.8128 50.6333 28.9782C50.6974 28.8965 50.7519 28.836 50.8036 28.7787C50.9064 28.6647 50.9978 28.5633 51.1299 28.3336C51.613 27.4937 52.0426 26.3403 51.7863 25.0625C51.3386 22.8313 49.3041 21.1776 46.9125 21.1292H46.8965H42.7503L30.8753 37.8012L40.969 52.2413Z" fill="#FCE700"/>\a<path fill-rule="evenodd" clip-rule="evenodd" d="M41.449 5.9375H53.4375L42.213 21.7178L35.2107 21.9688V14.8438L41.449 5.9375Z" fill="#E2E3F4"/>\a<path d="M28.8721 4.75C27.6336 4.75 26.7057 5.32859 26.226 6.04403C25.7462 6.75947 25.6445 7.52638 25.6383 8.06744C25.6383 8.07064 25.6383 8.07384 25.6383 8.07704V15.4477C25.6383 16.433 25.1919 18.2981 24.4678 20.0976C23.7436 21.897 22.7333 23.6774 21.7834 24.6514C21.4581 24.9848 20.2677 25.7427 18.2733 25.9775C18.2373 24.6607 17.1494 23.5862 15.8268 23.5862H6.01537C4.6704 23.5862 3.5625 24.6959 3.5625 26.043V49.793C3.5625 51.1397 4.66991 52.2499 6.01537 52.2499H15.8268C17.1718 52.2499 18.2797 51.1401 18.2797 49.793V49.3595C18.5698 49.6121 18.8763 49.8625 19.2235 50.0985C22.4723 52.3069 26.4742 52.2499 28.0912 52.2499H40.3555C42.7252 52.2499 44.5653 51.8797 45.9336 51.1542C47.3019 50.4287 48.1828 49.2901 48.4471 47.9743C48.5164 47.6291 48.4395 46.6556 48.0096 45.519C49.6233 45.1346 50.9825 43.9928 51.5356 42.3807C52.0788 40.7973 51.7399 39.0893 50.7499 37.8012C52.3522 36.9465 53.4375 35.2975 53.4375 33.4137C53.4375 31.4866 52.2978 29.8128 50.6333 28.9782C50.8248 28.7342 50.9314 28.6788 51.13 28.3336C51.613 27.4938 52.0426 26.3403 51.7863 25.0625C51.3386 22.8313 49.3041 21.1776 46.9125 21.1293C46.9072 21.1292 46.9018 21.1292 46.8965 21.1293H35.8762C36.3857 18.2556 37.1539 11.7727 33.3003 7.41483C32.5279 6.54015 31.2113 4.75 28.8721 4.75ZM28.8721 6.38793C30.3871 6.38793 31.2062 7.51655 32.0755 8.50092C35.6208 12.5101 34.5337 19.6926 34.1164 21.7883C34.0928 21.907 34.0958 22.0296 34.1251 22.147C34.1545 22.2645 34.2095 22.374 34.2861 22.4676C34.3628 22.5612 34.4592 22.6366 34.5685 22.6884C34.6778 22.7402 34.7971 22.7671 34.918 22.7672H46.8805C48.5378 22.8007 49.8948 23.9495 50.183 25.3856C50.3298 26.1176 50.0788 26.8768 49.7119 27.5146C49.345 28.1524 48.8842 28.6287 48.7761 28.7351C48.6712 28.8383 48.596 28.9679 48.5585 29.1103C48.5209 29.2527 48.5224 29.4026 48.5628 29.5443C48.6032 29.6859 48.6809 29.814 48.7879 29.9151C48.8948 30.0162 49.027 30.0865 49.1705 30.1187C50.7038 30.464 51.8023 31.8389 51.8023 33.4137C51.8023 34.9886 50.7038 36.3634 49.1705 36.7088C49.0181 36.7429 48.8786 36.8201 48.7685 36.9311C48.6585 37.0422 48.5825 37.1825 48.5496 37.3354C48.5167 37.4884 48.5282 37.6476 48.5827 37.7942C48.6373 37.9408 48.7327 38.0687 48.8575 38.1627C49.9918 39.0193 50.4478 40.5146 49.9897 41.8497C49.539 43.1637 48.293 44.0569 46.8949 44.0602C46.7476 44.0605 46.603 44.1007 46.4766 44.1766C46.3502 44.2524 46.2466 44.361 46.1767 44.491C46.1068 44.6209 46.0733 44.7674 46.0797 44.9148C46.0861 45.0623 46.1322 45.2053 46.213 45.3287C47.0611 46.6247 46.896 47.4004 46.8454 47.6528C46.6769 48.4894 46.1958 49.162 45.1686 49.7066C44.1409 50.2515 42.5506 50.6119 40.3555 50.6119H28.0912C26.4638 50.6119 22.8517 50.5858 20.1417 48.7437C19.3498 48.2053 18.7747 47.5828 18.2797 46.9922V27.5306C20.5998 27.2845 22.219 26.5483 22.9523 25.7967C24.174 24.544 25.2079 22.6393 25.9849 20.7086C26.7618 18.7779 27.2736 16.8686 27.2736 15.4477V8.08664C27.2772 7.77024 27.3661 7.28139 27.5834 6.95736C27.8006 6.63333 28.0747 6.38793 28.8721 6.38793ZM6.01537 25.2241H15.8268C16.2888 25.2241 16.6445 25.5803 16.6445 26.043V26.8332V47.3361V49.793C16.6445 50.2557 16.2888 50.6119 15.8268 50.6119H6.01537C5.55388 50.6119 5.19775 50.2545 5.19775 49.793V26.043C5.19775 25.5803 5.55339 25.2241 6.01537 25.2241Z" fill="#047AC2"/>\a</svg>