<svg width="24" height="24" viewBox="0 0 24 24" fill="none" xmlns="http://www.w3.org/2000/svg">\a<path fill-rule="evenodd" clip-rule="evenodd" d="M15.0984 8.37347L12.8009 3.4865C12.7166 3.33908 12.6042 3.22113 12.4637 3.13268C12.3232 3.04422 12.1686 3 12 3C11.8314 3 11.6768 3.04422 11.5363 3.13268C11.3958 3.22113 11.2834 3.33908 11.1991 3.4865L8.90164 8.37347L3.77986 9.14743C3.55504 9.17691 3.36534 9.2801 3.21077 9.457C3.07026 9.6339 3 9.8403 3 10.0762C3 10.2089 3.02108 10.3342 3.06323 10.4521C3.11944 10.57 3.1897 10.6732 3.274 10.7617L6.98361 14.543L6.11944 19.8943C6.10539 19.9238 6.09836 19.9533 6.09836 19.9828V20.0713C6.09836 20.3219 6.18267 20.543 6.35129 20.7346C6.53396 20.9116 6.75176 21 7.00468 21C7.07494 21 7.1452 20.9926 7.21546 20.9779C7.28571 20.9631 7.35597 20.9337 7.42623 20.8894L12 18.3686L16.5738 20.8894C16.644 20.9337 16.7143 20.9631 16.7845 20.9779C16.8548 20.9926 16.9251 21 16.9953 21C17.2482 21 17.459 20.9116 17.6276 20.7346C17.8103 20.543 17.9016 20.3219 17.9016 20.0713V19.9828C17.9016 19.9533 17.8946 19.9238 17.8806 19.8943L17.0164 14.543L20.726 10.7617C20.8103 10.6732 20.8735 10.57 20.9157 10.4521C20.9232 10.4363 20.9302 10.4204 20.9368 10.4043C20.9445 10.3852 20.9515 10.366 20.9578 10.3466C20.9859 10.2601 21 10.17 21 10.0762C21 10.0319 20.993 9.98772 20.9789 9.9435C20.9789 9.9018 20.9719 9.86379 20.9578 9.82947C20.9529 9.81743 20.9471 9.80585 20.9405 9.79472C20.9393 9.7927 20.938 9.79069 20.9368 9.7887H20.9578C20.9566 9.78504 20.9553 9.78141 20.954 9.77777C20.9486 9.76286 20.9429 9.74813 20.9368 9.7336C20.8784 9.5946 20.7871 9.47293 20.6628 9.36856C20.5363 9.25062 20.3888 9.17691 20.2201 9.14743L15.0984 8.37347Z" fill="#FCE700"/>\a<path fill-rule="evenodd" clip-rule="evenodd" d="M15.0984 8.37346L12.8009 3.48649C12.7166 3.33907 12.6042 3.22113 12.4637 3.13268C12.3232 3.04423 12.1686 3 12 3C11.8314 3 11.6768 3.04423 11.5363 3.13268C11.3958 3.22113 11.2834 3.33907 11.1991 3.48649L8.90164 8.37346L3.77986 9.14742C3.55504 9.1769 3.36534 9.2801 3.21077 9.457C3.07026 9.63391 3 9.8403 3 10.0762C3 10.2088 3.02108 10.3342 3.06323 10.4521C3.11944 10.57 3.1897 10.6732 3.274 10.7617L6.98361 14.543L6.11944 19.8944C6.10539 19.9238 6.09836 19.9533 6.09836 19.9828V20.0713C6.09836 20.3219 6.18267 20.543 6.35129 20.7346C6.53396 20.9115 6.75176 21 7.00468 21C7.07494 21 7.1452 20.9926 7.21546 20.9779C7.28571 20.9631 7.35597 20.9337 7.42623 20.8894L12 18.3686L16.5738 20.8894C16.644 20.9337 16.7143 20.9631 16.7845 20.9779C16.8548 20.9926 16.9251 21 16.9953 21C17.2482 21 17.459 20.9115 17.6276 20.7346C17.8103 20.543 17.9016 20.3219 17.9016 20.0713V19.9828C17.9016 19.9533 17.8946 19.9238 17.8806 19.8944L17.0164 14.543L20.726 10.7617C20.8103 10.6732 20.8735 10.57 20.9157 10.4521C20.9232 10.4363 20.9302 10.4204 20.9368 10.4043C20.9445 10.3852 20.9515 10.366 20.9578 10.3466C20.9859 10.2601 21 10.17 21 10.0762C21 10.0319 20.993 9.98772 20.9789 9.94349C20.9789 9.90179 20.9719 9.86378 20.9578 9.82946C20.9529 9.81742 20.9471 9.80584 20.9405 9.79472C20.9393 9.7927 20.938 9.79069 20.9368 9.7887H20.9578C20.9566 9.78504 20.9553 9.7814 20.954 9.77776C20.9486 9.76285 20.9429 9.74813 20.9368 9.7336C20.8784 9.5946 20.7871 9.47292 20.6628 9.36855C20.5363 9.25061 20.3888 9.1769 20.2201 9.14742L15.0984 8.37346ZM20.0963 9.88722L14.5901 9.05518L12.1386 3.84045C12.1169 3.8077 12.093 3.78558 12.0642 3.76739C12.0452 3.75549 12.0296 3.75 12 3.75C11.9704 3.75 11.9548 3.75549 11.9358 3.76739C11.907 3.78558 11.8831 3.8077 11.8614 3.84045L9.4099 9.05518L3.88466 9.8901L3.87738 9.89105C3.84459 9.89535 3.82051 9.90356 3.78792 9.93703C3.76387 9.97145 3.75 10.0104 3.75 10.0762C3.75 10.1115 3.7537 10.1411 3.75971 10.1666C3.77751 10.1975 3.79594 10.2218 3.81423 10.2414L7.78444 14.2884L6.84857 20.0838C6.85024 20.133 6.86237 20.1718 6.89477 20.2152C6.92818 20.2419 6.95755 20.25 7.00468 20.25C7.01511 20.25 7.02599 20.2494 7.0375 20.2479L7.04512 20.2431L12 17.5122L16.9549 20.2431L16.9625 20.2479C16.974 20.2494 16.9849 20.25 16.9953 20.25C17.0328 20.25 17.0487 20.2438 17.0529 20.2421C17.0565 20.2406 17.0668 20.2361 17.0847 20.2172C17.1375 20.1618 17.1496 20.1246 17.1514 20.0835L16.2156 14.2884L20.1852 10.242C20.1944 10.2319 20.2022 10.2198 20.2094 10.1997L20.2223 10.1638L20.2386 10.1294C20.2414 10.1236 20.2437 10.1179 20.2455 10.1118L20.2374 10.0866L20.1139 9.89218C20.1084 9.8901 20.1027 9.88852 20.0963 9.88722Z" fill="#047AC2"/>\a</svg>